<svg width="70.455078" height="107.455688" viewBox="0 0 70.4551 107.456" fill="none" xmlns="http://www.w3.org/2000/svg" xmlns:xlink="http://www.w3.org/1999/xlink">
	<desc>
			Created with Pixso.
	</desc>
	<defs/>
	<path id="Star 11" d="M11.78 10.98L0 14.11L10.98 19.41L14.11 31.19L19.41 20.21L31.19 17.08L20.21 11.78L17.08 0L11.78 10.98ZM16.81 2.86L12.48 11.83L2.86 14.38L11.83 18.7L14.38 28.32L18.7 19.36L28.32 16.81L19.36 12.48L16.81 2.86Z" fill="#BCEC30" fill-opacity="1.000000" fill-rule="evenodd"/>
	<path id="Star 12" d="M36.63 72.24L16.1 77.68L35.24 86.91L40.68 107.45L49.91 88.31L70.45 82.87L51.31 73.63L45.87 53.1L36.63 72.24ZM45.59 55.97L37.34 73.08L18.97 77.96L36.08 86.21L40.96 104.58L49.21 87.47L67.58 82.59L50.47 74.34L45.59 55.97Z" fill="#BCEC30" fill-opacity="1.000000" fill-rule="evenodd"/>
</svg>
