<svg width="112.651367" height="102.651886" viewBox="0 0 112.651 102.652" fill="none" xmlns="http://www.w3.org/2000/svg" xmlns:xlink="http://www.w3.org/1999/xlink">
	<desc>
			Created with Pixso.
	</desc>
	<defs/>
	<path id="Star 6" d="M70 58.23L44.1 65.1L68.23 76.75L75.1 102.65L86.75 78.51L112.65 71.64L88.51 60L81.64 34.1L70 58.23ZM81.37 36.96L70.7 59.08L46.96 65.38L69.08 76.05L75.38 99.78L86.04 77.66L109.78 71.37L87.66 60.7L81.37 36.96Z" fill="#BCEC30" fill-opacity="1.000000" fill-rule="evenodd"/>
	<path id="Star 7" d="M13.31 12.14L0 15.27L12.14 21.56L15.27 34.87L21.56 22.73L34.87 19.6L22.73 13.31L19.6 0L13.31 12.14ZM19.25 2.85L13.99 13.01L2.85 15.62L13.01 20.88L15.62 32.01L20.88 21.86L32.01 19.25L21.86 13.99L19.25 2.85Z" fill="#BCEC30" fill-opacity="1.000000" fill-rule="evenodd"/>
</svg>
